<svg width="78" height="117" viewBox="0 0 78 117" fill="none" xmlns="http://www.w3.org/2000/svg">
<path d="M70.0022 42.7335C71.6785 23.2741 57.0293 21.0148 57.0293 21.0148C58.6327 19.1198 57.5395 18.2453 57.5395 18.2453C54.4055 15.33 44.7851 14.3825 39.7563 14.3096C39.6105 9.7181 40.7038 4.03332 47.1174 4.32485C47.1174 4.32485 49.3038 2.42992 48.6479 1.3367C47.9919 0.24347 45.8784 0.607879 45.5868 1.3367C45.5868 1.3367 36.4037 3.15874 37.497 14.3096C32.3224 14.4554 23.285 15.4758 20.224 18.2453C20.224 18.2453 19.1308 19.1198 20.7342 21.0148C20.7342 21.0148 6.08494 23.2741 7.8341 42.7335C7.8341 42.7335 -2.00493 51.7709 0.910338 64.598C0.910338 64.598 2.87815 65.4726 3.67984 65.5455C3.67984 65.5455 -0.0371241 75.749 4.48154 87.41C4.48154 87.41 6.01206 87.7016 8.41716 85.9524C8.41716 85.9524 10.6036 97.6135 24.0139 105.412C24.0139 105.412 26.4189 103.954 27.2935 101.549C27.2935 101.549 29.9902 110.514 39.0275 117C48.0648 110.514 50.7615 101.549 50.7615 101.549C51.5631 103.954 54.0411 105.412 54.0411 105.412C67.4514 97.6135 69.6378 85.9524 69.6378 85.9524C72.0429 87.6287 73.5734 87.41 73.5734 87.41C78.165 75.749 74.3751 65.5455 74.3751 65.5455C75.1768 65.4726 77.1446 64.598 77.1446 64.598C79.8413 51.7709 70.0022 42.7335 70.0022 42.7335Z" fill="#2A5925"/>
<path d="M38.8818 32.4572C38.8818 32.4572 46.8988 31.2911 53.4581 23.2741C53.4581 23.2741 46.9716 27.5741 41.8699 29.0318L42.9631 24.8046L40.7038 29.3233C40.6309 29.3233 40.558 29.3233 40.558 29.3233L38.8818 19.63L37.2055 29.3962C37.1326 29.3962 37.0597 29.3962 37.0597 29.3962L34.8004 24.8775L35.8936 29.1046C30.719 27.647 24.3054 23.347 24.3054 23.347C30.8648 31.364 38.8818 32.4572 38.8818 32.4572Z" fill="white"/>
<path d="M34.8005 33.842C29.4072 40.1827 23.9411 42.442 20.3699 43.3166C23.1394 39.964 25.0343 35.8098 25.0343 35.8098C22.192 39.3081 19.5682 41.8589 18.1835 43.0979C19.7869 36.0284 25.0343 28.7402 25.0343 28.7402C19.9326 33.4775 17.5275 38.725 16.3614 42.5149C15.7784 40.7657 15.1224 37.9233 15.2682 34.2064C15.2682 34.2064 14.1021 37.7776 14.9038 42.5149C12.3529 38.8708 12.3529 29.1775 12.3529 29.1775C7.17831 40.62 15.0495 48.3454 15.0495 48.3454C34.4361 45.503 34.8005 33.842 34.8005 33.842Z" fill="white"/>
<path d="M24.3054 49.2929C24.3054 49.2929 27.658 61.4642 38.8818 67.3676C50.1056 61.4642 53.4581 49.2929 53.4581 49.2929C49.5954 56.2167 45.1496 58.9862 42.1614 60.1523C43.8377 55.6336 44.0564 52.2082 44.0564 52.2082C43.4733 54.9777 41.3597 57.893 40.3394 59.2777L38.8089 40.8386L37.2784 59.2777C36.258 57.893 34.1445 54.9777 33.5614 52.2082C33.5614 52.2082 33.8529 55.5607 35.4563 60.1523C32.6139 58.9862 28.1682 56.2167 24.3054 49.2929Z" fill="white"/>
<path d="M23.7224 57.5286C23.7224 57.5286 17.0901 60.2981 9.14602 60.0066C11.4782 58.9862 13.6647 57.5286 13.6647 57.5286C12.2799 58.1845 9.07314 58.8405 7.39686 59.2049C8.92737 57.2371 11.8426 54.176 15.924 51.698C15.924 51.698 10.2392 54.5404 6.66804 57.6743C6.95957 55.3421 7.83415 53.0828 7.83415 53.0828C6.74092 54.6862 6.08499 56.5082 5.79346 57.893C5.6477 55.7065 6.15787 51.5523 9.65619 44.9929C9.65619 44.9929 2.29514 50.5319 3.97142 61.8286C3.82565 61.6828 12.7172 64.5981 23.7224 57.5286Z" fill="white"/>
<path d="M13.6648 64.3066C13.6648 64.3066 13.2275 71.449 21.3174 75.9677C21.3174 75.9677 29.2615 73.2711 31.8852 65.0354C31.8852 65.0354 28.5327 70.3558 23.5767 72.0321C24.2327 70.0643 24.67 67.7321 24.67 67.7321C24.3784 69.1897 23.2852 71.1575 22.6293 72.2507C22.5564 72.2507 22.5564 72.2507 22.4835 72.3236C22.6293 69.6999 22.9208 64.8168 23.7225 61.3914C23.7225 61.3914 21.6818 66.7117 20.8801 71.5219C20.297 70.21 19.6411 68.6066 19.714 67.2948C19.714 67.2948 19.4225 69.627 19.8598 71.7406C17.9648 70.7202 15.0496 68.6067 13.6648 64.3066Z" fill="white"/>
<path d="M16.3613 75.9677C16.3613 75.9677 13.5918 77.7897 9.36468 78.5914C10.1664 77.6439 10.7494 76.6965 10.7494 76.6965C10.1664 77.4982 9.21892 78.1541 8.41722 78.6643C9.21892 76.5507 10.6037 73.271 11.8427 71.3761C11.8427 71.3761 9.00028 74.5829 7.46976 77.4253C7.39688 75.9677 7.32399 73.927 7.76129 71.7405C7.76129 71.7405 7.17823 73.7083 6.81382 76.4049C6.01212 74.0727 5.28331 70.2829 6.08501 65.1083C6.08501 65.1083 2.5138 71.9592 6.08501 82.0897C6.01212 82.0897 13.5189 80.6321 16.3613 75.9677Z" fill="white"/>
<path d="M23.2851 94.8439C23.7953 93.6778 24.3784 92.0744 24.7428 90.2524C24.7428 90.2524 23.358 92.7304 22.119 94.4795C21.4631 91.5643 20.5885 86.6083 20.7343 81.5066C20.7343 81.5066 19.4224 88.1388 20.0783 93.8236C19.1309 92.5117 18.0376 90.6168 17.1631 87.9202C17.1631 87.9202 17.9648 91.5643 19.058 94.5524C16.9444 93.3134 13.9563 90.5439 10.6766 84.4219C10.6766 84.4219 10.5308 94.9168 22.775 100.237C22.775 100.237 26.7106 97.4677 29.4801 88.4304C29.4801 88.2846 27.658 92.0744 23.2851 94.8439Z" fill="white"/>
<path d="M38.8818 92.2203C51.2717 87.2643 50.6157 76.6965 50.6157 76.6965C48.1378 85.1507 43.2547 87.4101 43.2547 87.4101C43.692 85.588 43.1089 82.0897 43.1089 82.0897C42.6716 84.5677 40.7038 87.8474 40.7038 87.8474L38.9547 74.51L37.2055 87.8474C37.2055 87.8474 35.2377 84.5677 34.8004 82.0897C34.8004 82.0897 34.2902 85.5152 34.6546 87.4101C34.6546 87.4101 29.7716 85.2236 27.2207 76.7693C27.1478 76.7693 26.4919 87.3372 38.8818 92.2203Z" fill="white"/>
<path d="M59.6532 43.0979C58.2684 41.7861 55.6447 39.3081 52.8023 35.8098C52.8023 35.8098 54.6972 39.8911 57.4667 43.3166C53.8955 42.5149 48.3565 40.1827 43.0361 33.842C43.0361 33.842 43.4005 45.503 62.7871 48.2725C62.7871 48.2725 70.6583 40.62 65.4837 29.1046C65.4837 29.1046 65.4837 38.7979 62.9329 42.442C63.7346 37.7776 62.5684 34.1335 62.5684 34.1335C62.7871 37.8505 62.0583 40.6928 61.4752 42.442C60.3091 38.7979 57.904 33.4775 52.8023 28.7402C52.8023 28.7402 58.0498 36.1013 59.6532 43.0979Z" fill="white"/>
<path d="M68.2532 44.847C71.7515 51.4064 72.2617 55.5607 72.1159 57.7471C71.8244 56.3624 71.1685 54.5403 70.0752 52.9369C70.0752 52.9369 70.9498 55.2691 71.2413 57.5285C67.6701 54.3946 61.9854 51.5522 61.9854 51.5522C66.0667 54.0301 68.9091 57.1641 70.5125 59.059C68.8362 58.7675 65.6294 58.1115 64.2447 57.3827C64.2447 57.3827 66.4311 58.8403 68.7634 59.8607C60.8193 60.1522 54.187 57.3827 54.187 57.3827C65.1922 64.5251 74.0837 61.537 74.0837 61.537C75.6142 50.3861 68.2532 44.847 68.2532 44.847Z" fill="white"/>
<path d="M58.0497 67.3675C58.1226 68.6065 57.5395 70.2828 56.8836 71.5947C56.0819 66.7845 54.0412 61.4641 54.0412 61.4641C54.8429 64.8896 55.1344 69.7726 55.2802 72.3964C55.2073 72.3964 55.1344 72.3964 55.1344 72.3235C54.4785 71.2303 53.3124 69.2625 53.0937 67.8048C53.0937 67.8048 53.531 70.0642 54.1869 72.1048C49.231 70.4286 45.8784 65.1082 45.8784 65.1082C48.5022 73.3438 56.4463 76.0405 56.4463 76.0405C64.609 71.5218 64.0989 64.3794 64.0989 64.3794C62.6412 68.6065 59.7988 70.793 57.9039 71.8133C58.3412 69.6269 58.0497 67.3675 58.0497 67.3675Z" fill="white"/>
<path d="M71.0226 76.3321C70.6582 73.6354 70.0751 71.6676 70.0751 71.6676C70.4395 73.8541 70.4396 75.8948 70.3667 77.3524C68.8362 74.51 65.9938 71.3032 65.9938 71.3032C67.3056 73.1982 68.6904 76.5507 69.4192 78.5914C68.6175 78.0812 67.67 77.4253 67.087 76.6236C67.087 76.6236 67.67 77.5711 68.4717 78.5185C64.2446 77.6439 61.4751 75.8948 61.4751 75.8948C64.2446 80.5592 71.7514 82.0168 71.7514 82.0168C75.3226 71.8863 71.7514 65.0354 71.7514 65.0354C72.5531 70.21 71.8243 74.0727 71.0226 76.3321Z" fill="white"/>
<path d="M58.7055 94.4797C59.7988 91.4915 60.6005 87.8474 60.6005 87.8474C59.7259 90.6169 58.6327 92.439 57.6852 93.7508C58.3411 88.0661 57.0293 81.4338 57.0293 81.4338C57.175 86.5356 56.3004 91.4915 55.6445 94.4068C54.4784 92.7305 53.0208 90.1796 53.0208 90.1796C53.3123 92.0746 53.8953 93.6051 54.4784 94.7712C50.1055 92.0017 48.2834 88.2847 48.2834 88.2847C51.053 97.3221 54.9886 100.092 54.9886 100.092C67.2327 94.7712 67.0869 84.2762 67.0869 84.2762C63.8073 90.4712 60.8191 93.2407 58.7055 94.4797Z" fill="white"/>
<path d="M41.7969 108.254C42.0884 106.359 41.9427 104.319 41.9427 104.319C41.724 105.485 40.9952 107.015 40.4122 108.036C39.7562 106.432 38.8816 102.861 38.8816 102.861C38.8816 102.861 38.0071 106.505 37.3511 108.036C36.7681 107.015 36.0393 105.412 35.8206 104.319C35.8206 104.319 35.6748 106.359 35.9664 108.254C34.2901 107.234 30.8647 104.319 28.2409 96.9575C28.2409 96.9575 27.8765 106.797 38.8816 113.064C49.8868 106.797 49.5224 96.9575 49.5224 96.9575C46.8986 104.319 43.4732 107.234 41.7969 108.254Z" fill="white"/>
</svg>
